<svg xmlns="http://www.w3.org/2000/svg" width="960" height="520" viewBox="0 0 960 520">
<rect width="960" height="520" fill="#0b1220"/>
<text x="70" y="24" fill="#e2e8f0" font-size="17" font-weight="700">Agentic burndown — work remaining (open CRs + agent-found defects)</text>
<line x1="70" y1="424.0" x2="930" y2="424.0" stroke="#1e293b"/><text x="60" y="428.0" fill="#64748b" font-size="12" text-anchor="end">0</text><line x1="70" y1="369.1" x2="930" y2="369.1" stroke="#1e293b"/><text x="60" y="373.1" fill="#64748b" font-size="12" text-anchor="end">1</text><line x1="70" y1="314.3" x2="930" y2="314.3" stroke="#1e293b"/><text x="60" y="318.3" fill="#64748b" font-size="12" text-anchor="end">2</text><line x1="70" y1="259.4" x2="930" y2="259.4" stroke="#1e293b"/><text x="60" y="263.4" fill="#64748b" font-size="12" text-anchor="end">3</text><line x1="70" y1="204.6" x2="930" y2="204.6" stroke="#1e293b"/><text x="60" y="208.6" fill="#64748b" font-size="12" text-anchor="end">4</text><line x1="70" y1="149.7" x2="930" y2="149.7" stroke="#1e293b"/><text x="60" y="153.7" fill="#64748b" font-size="12" text-anchor="end">5</text><line x1="70" y1="94.9" x2="930" y2="94.9" stroke="#1e293b"/><text x="60" y="98.9" fill="#64748b" font-size="12" text-anchor="end">6</text><line x1="70" y1="40.0" x2="930" y2="40.0" stroke="#1e293b"/><text x="60" y="44.0" fill="#64748b" font-size="12" text-anchor="end">7</text>
<polyline points="70.0,40.0 930.0,424.0" fill="none" stroke="#475569" stroke-width="2" stroke-dasharray="6 5"/>
<polyline points="70.0,40.0 177.5,94.9 285.0,149.7 392.5,204.6 500.0,259.4 607.5,314.3 715.0,424.0 822.5,369.1 930.0,424.0" fill="none" stroke="#7c9cff" stroke-width="3"/>
<circle cx="70.0" cy="40.0" r="7" fill="#7c9cff" stroke="#0b1220" stroke-width="2"/><text x="70.0" y="446" fill="#94a3b8" font-size="12" text-anchor="middle" transform="rotate(20 70.0 446)">7 CRs scoped</text><circle cx="177.5" cy="94.9" r="5" fill="#38bdf8" stroke="#0b1220" stroke-width="2"/><text x="177.5" y="446" fill="#94a3b8" font-size="12" text-anchor="middle" transform="rotate(20 177.5 446)">Phase 2 CSS merged</text><circle cx="285.0" cy="149.7" r="5" fill="#38bdf8" stroke="#0b1220" stroke-width="2"/><text x="285.0" y="446" fill="#94a3b8" font-size="12" text-anchor="middle" transform="rotate(20 285.0 446)">Phase 3 deck-io merged</text><circle cx="392.5" cy="204.6" r="5" fill="#38bdf8" stroke="#0b1220" stroke-width="2"/><text x="392.5" y="446" fill="#94a3b8" font-size="12" text-anchor="middle" transform="rotate(20 392.5 446)">Phase 5 injection merged</text><circle cx="500.0" cy="259.4" r="5" fill="#38bdf8" stroke="#0b1220" stroke-width="2"/><text x="500.0" y="446" fill="#94a3b8" font-size="12" text-anchor="middle" transform="rotate(20 500.0 446)">Phase 4 hooks merged</text><circle cx="607.5" cy="314.3" r="5" fill="#38bdf8" stroke="#0b1220" stroke-width="2"/><text x="607.5" y="446" fill="#94a3b8" font-size="12" text-anchor="middle" transform="rotate(20 607.5 446)">Phase 1 allowlist merged</text><circle cx="715.0" cy="424.0" r="5" fill="#38bdf8" stroke="#0b1220" stroke-width="2"/><text x="715.0" y="446" fill="#94a3b8" font-size="12" text-anchor="middle" transform="rotate(20 715.0 446)">Phase 6 CI + Phase 7 docs</text><circle cx="822.5" cy="369.1" r="7" fill="#f59e0b" stroke="#0b1220" stroke-width="2"/><text x="822.5" y="446" fill="#94a3b8" font-size="12" text-anchor="middle" transform="rotate(20 822.5 446)">Blind round 1: V1 inconclusive (harness)</text><text x="822.5" y="355.1" fill="#f59e0b" font-size="12" font-weight="700" text-anchor="middle">+1</text><circle cx="930.0" cy="424.0" r="7" fill="#34d399" stroke="#0b1220" stroke-width="2"/><text x="930.0" y="446" fill="#94a3b8" font-size="12" text-anchor="middle" transform="rotate(20 930.0 446)">Blind V1b re-run PASS — gate clean</text>
<text x="70" y="506" fill="#f59e0b" font-size="12">▲ blind-hunt rounds ADD scope (defects the agents found) — the curve bumps before 0</text>
</svg>