<svg xmlns="http://www.w3.org/2000/svg" width="960" height="520" viewBox="0 0 960 520">
<rect width="960" height="520" fill="#0b1220"/>
<text x="70" y="24" fill="#e2e8f0" font-size="17" font-weight="700">Agentic burndown — work remaining (open CRs + agent-found defects)</text>
<line x1="70" y1="424.0" x2="930" y2="424.0" stroke="#1e293b"/><text x="60" y="428.0" fill="#64748b" font-size="12" text-anchor="end">0</text><line x1="70" y1="296.0" x2="930" y2="296.0" stroke="#1e293b"/><text x="60" y="300.0" fill="#64748b" font-size="12" text-anchor="end">1</text><line x1="70" y1="168.0" x2="930" y2="168.0" stroke="#1e293b"/><text x="60" y="172.0" fill="#64748b" font-size="12" text-anchor="end">2</text><line x1="70" y1="40.0" x2="930" y2="40.0" stroke="#1e293b"/><text x="60" y="44.0" fill="#64748b" font-size="12" text-anchor="end">3</text>
<polyline points="70.0,40.0 930.0,424.0" fill="none" stroke="#475569" stroke-width="2" stroke-dasharray="6 5"/>
<polyline points="70.0,40.0 213.3,168.0 356.7,296.0 500.0,424.0 643.3,296.0 786.7,424.0 930.0,424.0" fill="none" stroke="#7c9cff" stroke-width="3"/>
<circle cx="70.0" cy="40.0" r="7" fill="#7c9cff" stroke="#0b1220" stroke-width="2"/><text x="70.0" y="446" fill="#94a3b8" font-size="12" text-anchor="middle" transform="rotate(20 70.0 446)">Plan (3 CRs)</text><circle cx="213.3" cy="168.0" r="5" fill="#38bdf8" stroke="#0b1220" stroke-width="2"/><text x="213.3" y="446" fill="#94a3b8" font-size="12" text-anchor="middle" transform="rotate(20 213.3 446)">CR2 UI+version</text><circle cx="356.7" cy="296.0" r="5" fill="#38bdf8" stroke="#0b1220" stroke-width="2"/><text x="356.7" y="446" fill="#94a3b8" font-size="12" text-anchor="middle" transform="rotate(20 356.7 446)">CR1 importer core</text><circle cx="500.0" cy="424.0" r="5" fill="#38bdf8" stroke="#0b1220" stroke-width="2"/><text x="500.0" y="446" fill="#94a3b8" font-size="12" text-anchor="middle" transform="rotate(20 500.0 446)">CR3 tests</text><circle cx="643.3" cy="296.0" r="7" fill="#f59e0b" stroke="#0b1220" stroke-width="2"/><text x="643.3" y="446" fill="#94a3b8" font-size="12" text-anchor="middle" transform="rotate(20 643.3 446)">Blind R1: content-loss bug</text><text x="643.3" y="282.0" fill="#f59e0b" font-size="12" font-weight="700" text-anchor="middle">+1</text><circle cx="786.7" cy="424.0" r="5" fill="#34d399" stroke="#0b1220" stroke-width="2"/><text x="786.7" y="446" fill="#94a3b8" font-size="12" text-anchor="middle" transform="rotate(20 786.7 446)">Grid-split + salvage fix</text><circle cx="930.0" cy="424.0" r="7" fill="#34d399" stroke="#0b1220" stroke-width="2"/><text x="930.0" y="446" fill="#94a3b8" font-size="12" text-anchor="middle" transform="rotate(20 930.0 446)">Blind R2: clean</text>
<text x="70" y="506" fill="#f59e0b" font-size="12">▲ blind-hunt rounds ADD scope (defects the agents found) — the curve bumps before 0</text>
</svg>